# xmcd CD database file
#
# Track frame offsets:
#	150
#	38557
#	69225
#	97844
#	129248
#	153905
#	174202
#	188763
#	216749
#	243787
#	266787
#
# Disc length: 3954 seconds
#
# Revision: 1
# Processed by: cddbd v1.5.2PL0 Copyright (c) Steve Scherf et al.
# Submitted via: CDex 1.70beta3
#
DISCID=880f700b
DTITLE=Various Artist - TOKYO CROSSOVER NIGHT
DYEAR=2011
DGENRE=Jazz
TTITLE0=沖野修也 Feat. Navasha Daya - Still In Love [Ezel Quisqueya Soul Mix]
TTITLE1=BRISA Feat. Paul Randolph - Sentimental Man [Root Soul Remix]
TTITLE2=Isoul8 Feat. Paul Randolph - Waves Of Love [Original Disco Version]
TTITLE3=DJ KAWASAKI - Change
TTITLE4=沖野修也 Feat. N'dea Davenport - Destiny [MdCL Vs KJM Remix]
TTITLE5=Kyoto Jazz Massive Feat. Bembe Segue - Mystery Of Ages [Moonstarr Edit]
TTITLE6=Yosuke Tominaga - Daytona
TTITLE7=ROOT SOUL - Fuselage [Afro Mix]
TTITLE8=Black Edition - Re
TTITLE9=Jazz Collective - The Jazz Collective [Ultimate Mix]
TTITLE10=Sleep Walker Feat. Navasha Daya - Thank You
EXTD=YEAR: 2011
EXTT0=
EXTT1=
EXTT2=
EXTT3=
EXTT4=
EXTT5=
EXTT6=
EXTT7=
EXTT8=
EXTT9=
EXTT10=
PLAYORDER=
